<?xml version="1.0" standalone="no"?>
<!DOCTYPE svg PUBLIC "-//W3C//DTD SVG 20010904//EN"
 "http://www.w3.org/TR/2001/REC-SVG-20010904/DTD/svg10.dtd">
<svg version="1.0" xmlns="http://www.w3.org/2000/svg"
 width="484.000000pt" height="485.000000pt" viewBox="0 0 484.000000 485.000000"
 preserveAspectRatio="xMidYMid meet">

<g transform="translate(0.000000,485.000000) scale(0.100000,-0.100000)"
fill="#000000" stroke="none">
<path d="M2180 4829 c-139 -15 -300 -47 -427 -83 -879 -253 -1542 -983 -1708
-1881 -76 -411 -45 -831 91 -1228 107 -312 288 -615 511 -856 l68 -73 95 40
c91 39 194 74 253 87 l27 5 0 874 0 874 203 128 c111 70 253 160 316 200 63
41 118 74 123 74 4 0 7 -480 6 -1067 l-3 -1066 -120 -22 c-175 -32 -628 -160
-750 -211 l-40 -16 35 -30 c318 -273 725 -461 1165 -539 152 -27 473 -37 636
-20 477 49 930 238 1294 538 36 29 65 57 65 62 0 17 -324 106 -732 201 l-138
32 0 1264 c0 695 3 1264 6 1264 7 0 203 -110 366 -206 59 -35 139 -79 177 -99
l71 -35 2 -1097 3 -1096 115 -43 c63 -24 141 -56 174 -71 l58 -28 58 62 c337
358 555 810 632 1308 27 178 29 501 4 668 -81 546 -314 1016 -691 1392 -189
188 -386 330 -626 449 -232 116 -476 193 -729 231 -126 19 -471 28 -590 14z
m755 -2198 c0 -957 -2 -1741 -5 -1744 -3 -3 -95 1 -205 9 -110 7 -203 13 -207
14 -5 0 -8 434 -8 965 l0 965 -87 50 c-49 28 -173 99 -278 159 l-190 108 -2
304 -3 304 488 302 c268 167 489 303 492 303 3 0 5 -783 5 -1739z"/>
</g>
</svg>
